<?xml version="1.0" encoding="utf-8"?>
<!-- Generator: Adobe Illustrator 18.1.1, SVG Export Plug-In . SVG Version: 6.00 Build 0)  -->
<!DOCTYPE svg PUBLIC "-//W3C//DTD SVG 1.1//EN" "http://www.w3.org/Graphics/SVG/1.1/DTD/svg11.dtd">
<svg version="1.1" id="Layer_1" xmlns="http://www.w3.org/2000/svg" xmlns:xlink="http://www.w3.org/1999/xlink" x="0px" y="0px"
	 viewBox="0 0 288 288" style="enable-background:new 0 0 288 288;" xml:space="preserve">
<style type="text/css">
	.st0{fill:none;}
</style>
<g>
	<rect x="32.2" y="106.1" class="st0" width="229.6" height="159.9"/>
	<path d="M53.4,172.8V146l-20-36.5h9.3l8.9,17.5c2.4,4.8,4.3,8.6,6.3,13.1h0.2c1.8-4.1,3.9-8.3,6.4-13.1l9.1-17.5h9.3l-21.2,36.4v27
		H53.4z"/>
	<path d="M98.3,109.5V147c0,14.2,6.3,20.2,14.8,20.2c9.4,0,15.4-6.2,15.4-20.2v-37.5h8.3v36.9c0,19.5-10.2,27.4-24,27.4
		c-13,0-22.7-7.4-22.7-27.1v-37.3H98.3z"/>
	<path d="M204.4,145c-0.5-8.8-1-19.5-0.9-27.4h-0.3c-2.2,7.4-4.8,15.3-8,24.1L184,172.5h-6.2l-10.2-30.2c-3-8.9-5.5-17.1-7.3-24.6
		H160c-0.2,7.9-0.7,18.5-1.2,28l-1.7,27.2h-7.8l4.4-63.4h10.4l10.8,30.6c2.6,7.8,4.8,14.8,6.4,21.3h0.3c1.6-6.4,3.9-13.3,6.7-21.3
		l11.3-30.6H210l3.9,63.4h-8L204.4,145z"/>
	<path d="M224.7,168.1c0-3.4,2.3-5.8,5.5-5.8c3.4,0,5.5,2.4,5.5,5.8c0,3.3-2.2,5.8-5.5,5.8C226.9,173.9,224.7,171.3,224.7,168.1z
		 M227,154.6l-1.3-45.1h9l-1.3,45.1H227z"/>
</g>
</svg>
